<svg width="13" height="15" viewBox="0 0 13 15" fill="none" xmlns="http://www.w3.org/2000/svg">
                                                        <path d="M2.51614 12.137C2.13997 12.137 1.78847 12.0075 1.53564 11.767C1.21497 11.4648 1.0608 11.0085 1.1163 10.5151L1.34447 8.51712C1.38764 8.14096 1.6158 7.64146 1.88097 7.37012L6.9438 2.01129C8.20797 0.673123 9.52764 0.636123 10.8658 1.90029C12.204 3.16446 12.241 4.48412 10.9768 5.82229L5.91397 11.1811C5.65497 11.4586 5.17397 11.7176 4.7978 11.7793L2.81214 12.1185C2.7073 12.1246 2.6148 12.137 2.51614 12.137ZM8.9233 1.89412C8.44847 1.89412 8.03531 2.19012 7.61597 2.63412L2.55314 7.99912C2.4298 8.12862 2.28797 8.43696 2.2633 8.61579L2.03514 10.6138C2.01047 10.8173 2.0598 10.9838 2.1708 11.0886C2.2818 11.1935 2.4483 11.2305 2.6518 11.1996L4.63747 10.8605C4.8163 10.8296 5.1123 10.6693 5.23564 10.5398L10.2985 5.18096C11.0631 4.36696 11.3406 3.61462 10.2245 2.56629C9.73114 2.09146 9.30564 1.89412 8.9233 1.89412Z" fill="#7E92A2" />
                                                        <path d="M9.7928 6.85212C9.78047 6.85212 9.76197 6.85212 9.74964 6.85212C7.82564 6.66096 6.2778 5.19946 5.9818 3.28779C5.9448 3.03496 6.11747 2.80062 6.3703 2.75746C6.62314 2.72046 6.85747 2.89312 6.90064 3.14596C7.13497 4.63829 8.34364 5.78529 9.8483 5.93329C10.1011 5.95796 10.2861 6.18612 10.2615 6.43896C10.2306 6.67329 10.0271 6.85212 9.7928 6.85212Z" fill="#7E92A2" />
                                                        <path d="M12.0498 14.1288H0.949805C0.696971 14.1288 0.487305 13.9191 0.487305 13.6663C0.487305 13.4135 0.696971 13.2038 0.949805 13.2038H12.0498C12.3026 13.2038 12.5123 13.4135 12.5123 13.6663C12.5123 13.9191 12.3026 14.1288 12.0498 14.1288Z" fill="#7E92A2" />
                                                    </svg>