<svg width="15" height="20" viewBox="0 0 23 24" fill="none" xmlns="http://www.w3.org/2000/svg">
                                            <path
                                                d="M3.02734 6.29346H4.92952H20.1469"
                                                stroke="#012456"
                                                strokeWidth="1.4837"
                                                strokeLinecap="round"
                                                strokeLinejoin="round"
                                            />
                                            <path
                                                d="M18.2449 6.29348V19.6087C18.2449 20.1132 18.0445 20.597 17.6878 20.9537C17.331 21.3105 16.8472 21.5109 16.3427 21.5109H6.83186C6.32737 21.5109 5.84355 21.3105 5.48682 20.9537C5.13009 20.597 4.92969 20.1132 4.92969 19.6087V6.29348M7.78295 6.29348V4.39131C7.78295 3.88682 7.98336 3.403 8.34008 3.04627C8.69681 2.68954 9.18063 2.48914 9.68512 2.48914H13.4895C13.994 2.48914 14.4778 2.68954 14.8345 3.04627C15.1912 3.403 15.3916 3.88682 15.3916 4.39131V6.29348"
                                                stroke="#012456"
                                                strokeWidth="1.4837"
                                                strokeLinecap="round"
                                                strokeLinejoin="round"
                                            />
                                            <path
                                                d="M9.68457 11.049V16.7555"
                                                stroke="#012456"
                                                strokeWidth="1.4837"
                                                strokeLinecap="round"
                                                strokeLinejoin="round"
                                            />
                                            <path
                                                d="M13.4893 11.049V16.7555"
                                                stroke="#012456"
                                                strokeWidth="1.4837"
                                                strokeLinecap="round"
                                                strokeLinejoin="round"
                                            />
                                        </svg>