<svg width="20" height="25" viewBox="0 0 30 33" fill="none" xmlns="http://www.w3.org/2000/svg">
                            <rect width="30" height="33" rx="15" fill="#E9F8FE" />
                            <path d="M20.0913 17.6448L20.0914 17.6451L20.1009 17.7767L20.1009 17.7768L20.0913 17.6448ZM20.0913 17.6448C19.9355 15.6165 18.9901 14.3439 18.166 13.2346L18.1642 13.2321C17.3992 12.2023 16.7566 11.334 16.7566 10.0532C16.7566 9.91991 16.682 9.7983 16.5639 9.73734M20.0913 17.6448L16.5296 9.80376M11.9878 14.4878C11.9798 14.4326 11.959 14.38 11.9269 14.3344C11.8948 14.2886 11.8525 14.2511 11.8032 14.2247L11.8026 14.2244C11.7031 14.1724 11.5845 14.1679 11.4814 14.2187C11.4421 14.2377 11.0632 14.432 10.6838 14.9857C10.3043 15.5396 9.92736 16.4489 9.88577 17.8927L11.9139 14.4987M11.9878 14.4878C11.9878 14.4879 11.9878 14.4879 11.9879 14.488M11.9878 14.4878L11.9878 14.4878L11.9139 14.4987M11.9878 14.4878L11.9879 14.4879L11.9879 14.488M11.9879 14.488L11.9139 14.4987M11.9879 14.488L11.9879 14.4883L11.9881 14.4894L11.9887 14.4935L11.9912 14.5086C11.9935 14.5217 11.9968 14.5405 12.0015 14.5644C12.0108 14.6123 12.0253 14.6801 12.0462 14.762C12.088 14.9259 12.1551 15.1446 12.2568 15.3697C12.4502 15.7979 12.7606 16.2316 13.2447 16.3756M11.9139 14.4987C11.9165 14.5169 12.1642 16.1524 13.2441 16.4532C13.2442 16.4278 13.2444 16.4019 13.2447 16.3756M13.2447 16.3756C13.2518 15.6394 13.2923 14.569 13.5345 13.6102L13.5345 13.6101C13.8998 12.1678 14.9432 10.66 16.1949 9.76434L16.2384 9.82513M13.2447 16.3756C13.2691 16.3828 13.294 16.3894 13.3193 16.3951C13.3259 15.6595 13.365 14.5865 13.6069 13.6285L16.2384 9.82513M16.2384 9.82513L16.1944 9.76467C16.3027 9.68595 16.4455 9.67609 16.5639 9.73734M16.2384 9.82513C16.3235 9.76324 16.436 9.75531 16.5296 9.80376M16.5639 9.73734L16.5296 9.80376M16.5639 9.73734C16.564 9.73736 16.564 9.73737 16.564 9.73738L16.5296 9.80376M13.395 20.7706L13.3949 20.7706C13.3929 20.8062 13.3929 20.8357 13.3929 20.8666L13.3929 20.8754C13.3929 21.8266 14.1182 22.5923 15 22.5923C15.8818 22.5923 16.6071 21.8266 16.6071 20.8754C16.6071 20.8266 16.6038 20.7807 16.6002 20.7323L16.6002 20.7322C16.5429 19.9414 16.2186 19.4793 15.8951 19.0195L15.8951 19.0195L15.8925 19.0158C15.6917 18.7304 15.4803 18.4299 15.35 18.07C15.1297 18.3562 14.9593 18.6925 14.8836 19.0084C14.7865 19.4143 14.778 19.8666 14.778 20.266C14.778 20.266 14.778 20.2661 14.778 20.2661L13.395 20.7706ZM13.395 20.7706L13.395 20.7682C13.4034 20.4595 13.4497 20.2273 13.5073 20.0551M13.395 20.7706L13.5073 20.0551M13.5073 20.0551C13.6874 20.3595 13.9799 20.6211 14.4229 20.6211C14.4696 20.6212 14.5157 20.612 14.5588 20.5942L13.5073 20.0551ZM14.0842 19.6223C14.1 19.3748 14.1312 19.1016 14.1929 18.8431L14.1929 18.843C14.3535 18.1732 14.8117 17.4745 15.3631 17.0579L15.4082 17.1176L15.3629 17.058C15.4156 17.0181 15.4783 16.9936 15.5442 16.9875C15.61 16.9813 15.6762 16.9938 15.7353 17.0233M14.0842 19.6223L13.9536 16.7806C13.9536 16.7806 13.9536 16.7806 13.9536 16.7805C13.9536 15.8423 13.9749 14.7668 14.2231 13.7842C14.4933 12.7171 15.218 11.5635 16.1029 10.7533C16.2922 11.9036 16.932 12.7645 17.5903 13.6502L17.5942 13.6555C17.5942 13.6555 17.5942 13.6555 17.5942 13.6555C18.4112 14.7552 19.2434 15.8773 19.3831 17.6957L19.3927 17.8294L19.3927 17.8297L19.3934 17.8396C19.402 17.9532 19.4103 18.0638 19.4103 18.1821C19.4102 19.9024 18.4193 21.3951 16.9784 22.1216C17.1908 21.7577 17.3172 21.3334 17.3172 20.8754C17.3172 20.8063 17.3129 20.7423 17.3047 20.6281L17.3047 20.628C17.2367 19.6918 16.8285 19.1119 16.477 18.6124L16.4758 18.6108L16.4758 18.6107C16.1748 18.1833 15.9321 17.8348 15.9321 17.3412C15.9321 17.2064 15.8559 17.0833 15.7353 17.0233M14.0842 19.6223C14.0578 19.567 14.0362 19.5094 14.0189 19.4551C13.9847 19.348 13.97 19.2622 13.9675 19.2478C13.9673 19.2467 13.9672 19.246 13.9671 19.2458L13.9672 19.2458L13.9668 19.243C13.959 19.1868 13.9378 19.1332 13.9051 19.0869C13.8723 19.0405 13.829 19.0026 13.7786 18.9765L13.7785 18.9764C13.6774 18.924 13.5558 18.9223 13.453 18.9751C13.453 18.9752 13.4529 18.9752 13.4529 18.9752L13.4871 19.0417L14.0842 19.6223ZM15.7353 17.0233L15.7019 17.0902L15.7352 17.0232C15.7352 17.0233 15.7353 17.0233 15.7353 17.0233ZM13.0217 22.1216C11.5808 21.3951 10.5899 19.9024 10.5899 18.1821L10.5899 18.1721C10.5899 18.0912 10.5899 18.0127 10.5952 17.9256L10.5952 17.9256L10.5953 17.9231C10.639 16.3977 11.0895 15.5858 11.4238 15.1893C11.5539 15.6026 11.7694 16.0603 12.0928 16.4282C12.4516 16.8366 12.945 17.1356 13.5985 17.1357C13.6451 17.1357 13.6913 17.1265 13.7344 17.1087C13.7775 17.0909 13.8167 17.0647 13.8496 17.0317C13.8826 16.9987 13.9088 16.9596 13.9266 16.9165L13.0217 22.1216ZM13.0217 22.1216C12.8092 21.7577 12.6828 21.3334 12.6828 20.8755C12.6828 20.8316 12.6831 20.7859 12.6856 20.7396L13.0217 22.1216Z" fill="#2EC1FF" stroke="#2EC1FF" strokeWidth="0.149504" />
                        </svg>