 <svg width="14" height="16" viewBox="0 0 14 16" fill="none" xmlns="http://www.w3.org/2000/svg">
                                        <path
                                            d="M7 2.375C5.66498 2.375 4.35994 2.77088 3.2499 3.51258C2.13987 4.25428 1.27471 5.30849 0.763816 6.54189C0.252925 7.77529 0.119252 9.13249 0.379702 10.4419C0.640153 11.7512 1.28303 12.954 2.22703 13.898C3.17104 14.842 4.37377 15.4848 5.68314 15.7453C6.99252 16.0057 8.34972 15.8721 9.58312 15.3612C10.8165 14.8503 11.8707 13.9851 12.6124 12.8751C13.3541 11.7651 13.75 10.46 13.75 9.125C13.748 7.33542 13.0361 5.61972 11.7707 4.35429C10.5053 3.08886 8.78959 2.37705 7 2.375ZM7 14.75C5.88748 14.75 4.79995 14.4201 3.87492 13.802C2.94989 13.1839 2.22892 12.3054 1.80318 11.2776C1.37744 10.2498 1.26604 9.11876 1.48309 8.02762C1.70013 6.93647 2.23586 5.93419 3.02253 5.14752C3.8092 4.36085 4.81148 3.82512 5.90262 3.60808C6.99376 3.39104 8.12476 3.50243 9.1526 3.92818C10.1804 4.35392 11.0589 5.07489 11.677 5.99992C12.2951 6.92494 12.625 8.01248 12.625 9.125C12.6233 10.6163 12.0302 12.0461 10.9756 13.1006C9.9211 14.1552 8.49133 14.7483 7 14.75ZM10.2105 5.91453C10.2628 5.96677 10.3043 6.02881 10.3326 6.0971C10.3609 6.16538 10.3754 6.23858 10.3754 6.3125C10.3754 6.38642 10.3609 6.45962 10.3326 6.5279C10.3043 6.59619 10.2628 6.65823 10.2105 6.71047L7.39797 9.52297C7.34571 9.57523 7.28367 9.61669 7.21538 9.64497C7.1471 9.67325 7.07391 9.68781 7 9.68781C6.92609 9.68781 6.85291 9.67325 6.78463 9.64497C6.71634 9.61669 6.6543 9.57523 6.60204 9.52297C6.54977 9.47071 6.50832 9.40866 6.48003 9.34038C6.45175 9.2721 6.43719 9.19891 6.43719 9.125C6.43719 9.05109 6.45175 8.9779 6.48003 8.90962C6.50832 8.84134 6.54977 8.77929 6.60204 8.72703L9.41454 5.91453C9.46678 5.86223 9.52881 5.82074 9.5971 5.79243C9.66539 5.76413 9.73858 5.74956 9.8125 5.74956C9.88643 5.74956 9.95962 5.76413 10.0279 5.79243C10.0962 5.82074 10.1582 5.86223 10.2105 5.91453ZM4.75 0.6875C4.75 0.538316 4.80927 0.395242 4.91476 0.289752C5.02025 0.184263 5.16332 0.125 5.3125 0.125H8.6875C8.83669 0.125 8.97976 0.184263 9.08525 0.289752C9.19074 0.395242 9.25 0.538316 9.25 0.6875C9.25 0.836684 9.19074 0.979758 9.08525 1.08525C8.97976 1.19074 8.83669 1.25 8.6875 1.25H5.3125C5.16332 1.25 5.02025 1.19074 4.91476 1.08525C4.80927 0.979758 4.75 0.836684 4.75 0.6875Z"
                                            fill="black"
                                        />
                                    </svg>